<?xml version="1.0" standalone="no"?>
<!DOCTYPE svg PUBLIC "-//W3C//DTD SVG 20010904//EN"
 "http://www.w3.org/TR/2001/REC-SVG-20010904/DTD/svg10.dtd">
<svg version="1.0" xmlns="http://www.w3.org/2000/svg"
 width="313.000000pt" height="345.000000pt" viewBox="0 0 313.000000 345.000000"
 preserveAspectRatio="xMidYMid meet">

<g transform="translate(0.000000,345.000000) scale(0.100000,-0.100000)"
fill="#000000" stroke="none">
<path d="M1730 2940 c0 -5 -8 -10 -17 -10 -14 0 -15 -2 -5 -9 9 -5 0 -10 -28
-15 -36 -6 -40 -9 -30 -21 7 -8 22 -15 34 -14 11 0 15 3 9 6 -24 9 -13 23 12
17 15 -4 25 -2 25 5 0 6 9 11 21 11 11 0 17 5 14 10 -3 6 1 10 10 10 9 0 13 5
10 10 -3 6 -17 10 -31 10 -13 0 -24 -4 -24 -10z"/>
<path d="M1840 2920 c36 -12 60 -12 60 0 0 6 -19 10 -42 9 -37 -1 -39 -2 -18
-9z"/>
<path d="M1806 2900 c5 -5 25 -13 44 -16 32 -7 34 -6 21 9 -7 9 -27 17 -44 17
-20 0 -28 -3 -21 -10z"/>
<path d="M1774 2865 c22 -16 66 -20 66 -6 0 10 -35 21 -65 21 -20 -1 -20 -1
-1 -15z"/>
<path d="M2100 2853 c30 -14 69 -29 85 -34 28 -8 29 -7 11 6 -23 17 -121 55
-139 54 -7 0 13 -12 43 -26z"/>
<path d="M1739 2840 c22 -19 51 -27 51 -14 0 12 -35 33 -55 33 -19 0 -19 -1 4
-19z"/>
<path d="M1655 2841 c-5 -9 31 -41 47 -41 16 0 7 30 -11 40 -24 12 -28 12 -36
1z"/>
<path d="M2025 2839 c11 -17 153 -81 172 -77 21 4 -55 51 -118 73 -49 18 -62
19 -54 4z"/>
<path d="M2010 2800 c38 -31 145 -90 161 -90 21 1 -38 47 -103 81 -66 33 -95
38 -58 9z"/>
<path d="M1960 2764 c50 -56 132 -110 152 -98 25 16 -86 110 -144 121 l-33 6
25 -29z"/>
<path d="M1870 2755 c0 -25 31 -66 74 -96 40 -30 76 -38 76 -17 0 23 -44 75
-85 102 -48 30 -65 33 -65 11z"/>
<path d="M1760 2730 c0 -22 30 -68 60 -94 34 -28 70 -35 70 -13 0 20 -55 94
-79 106 -25 14 -51 14 -51 1z"/>
<path d="M1663 2723 c-28 -10 -3 -103 31 -116 20 -8 26 1 26 39 0 36 -37 85
-57 77z"/>
<path d="M2393 2675 c32 -32 61 -54 65 -50 4 4 -13 25 -38 47 -72 63 -90 65
-27 3z"/>
<path d="M1397 2693 c-9 -8 -9 -58 0 -66 12 -13 33 15 33 44 0 27 -17 39 -33
22z"/>
<path d="M1524 2676 c-9 -38 4 -68 29 -64 18 2 22 10 22 43 0 34 -4 40 -22 43
-17 3 -24 -3 -29 -22z"/>
<path d="M2320 2686 c0 -21 118 -126 141 -126 20 0 20 1 -4 29 -31 37 -86 85
-114 100 -19 10 -23 9 -23 -3z"/>
<path d="M2260 2641 c0 -22 89 -115 132 -137 16 -8 36 -13 44 -10 28 11 -20
69 -110 137 -45 33 -66 37 -66 10z"/>
<path d="M2187 2603 c-13 -12 -7 -29 23 -75 49 -75 150 -129 150 -81 0 66
-138 191 -173 156z"/>
<path d="M2067 2563 c-25 -25 18 -121 72 -160 36 -27 76 -30 85 -6 11 28 -40
118 -84 147 -40 26 -61 32 -73 19z"/>
<path d="M1888 2505 c-16 -35 4 -95 46 -140 26 -27 41 -35 69 -35 31 0 38 4
43 25 11 46 -6 97 -46 137 -47 47 -94 53 -112 13z"/>
<path d="M1709 2484 c-31 -37 -6 -129 41 -154 46 -25 97 25 86 84 -13 69 -91
113 -127 70z"/>
<path d="M2557 2483 c22 -57 131 -193 155 -193 22 0 -7 62 -60 130 -43 56 -70
80 -88 80 -9 0 -11 -6 -7 -17z"/>
<path d="M1504 2449 c-26 -51 3 -119 52 -119 49 0 73 91 34 130 -31 31 -66 26
-86 -11z"/>
<path d="M1132 2458 c-13 -13 -16 -50 -5 -61 11 -12 43 25 43 50 0 25 -19 30
-38 11z"/>
<path d="M1317 2452 c-31 -34 -19 -92 20 -92 48 0 64 101 16 108 -10 2 -27 -6
-36 -16z"/>
<path d="M2495 2403 c9 -53 58 -134 105 -177 49 -44 70 -46 70 -8 0 68 -111
222 -159 222 -21 0 -23 -3 -16 -37z"/>
<path d="M2384 2355 c-19 -75 115 -253 172 -231 41 16 -3 133 -78 209 -53 53
-84 60 -94 22z"/>
<path d="M2243 2312 c-34 -21 -37 -103 -7 -163 22 -44 71 -79 110 -79 31 0 37
5 50 35 39 94 -79 254 -153 207z"/>
<path d="M2028 2264 c-36 -19 -48 -43 -48 -95 0 -53 33 -107 76 -125 46 -19
58 -18 93 12 27 22 31 32 31 76 0 62 -23 104 -72 129 -44 22 -45 22 -80 3z"/>
<path d="M2760 2232 c0 -35 41 -153 76 -219 25 -47 34 -77 34 -112 0 -55 -5
-64 -30 -49 -24 15 -47 -3 -58 -46 -8 -28 -12 -31 -43 -28 -55 4 -85 -14 -108
-68 -32 -75 -28 -150 12 -233 25 -50 30 -70 22 -77 -7 -6 -20 -28 -30 -50 -17
-37 -35 -53 -35 -30 0 6 -15 18 -34 27 -43 20 -82 7 -126 -43 -63 -73 -66
-224 -5 -248 48 -18 115 7 139 52 32 58 33 58 56 29 13 -16 31 -27 46 -27 29
0 32 -16 5 -25 -23 -7 -59 -52 -95 -120 l-26 -50 0 41 c0 75 -49 94 -117 45
-93 -67 -129 -205 -64 -240 39 -22 101 18 152 98 l29 45 0 -42 c0 -39 2 -42
27 -42 19 0 39 14 70 47 32 36 43 43 43 29 0 -18 1 -18 20 -1 41 37 121 215
126 280 1 16 13 55 28 85 14 31 33 101 42 155 15 88 16 122 6 280 -10 169 -25
250 -70 400 -14 45 -58 129 -76 144 -14 12 -16 11 -16 -7z m58 -1040 c-25 -57
-74 -133 -76 -119 -2 9 -8 17 -13 17 -18 0 -9 17 34 62 38 42 64 61 55 40z"/>
<path d="M1759 2201 c-25 -25 -29 -37 -29 -83 1 -72 32 -108 95 -108 74 0 118
86 81 159 -34 64 -100 79 -147 32z"/>
<path d="M1250 2181 c-35 -34 -39 -77 -12 -111 41 -51 111 -12 112 61 0 40
-15 64 -48 74 -17 5 -29 -1 -52 -24z"/>
<path d="M1491 2174 c-48 -62 -10 -154 64 -154 73 0 110 86 64 151 -17 24 -27
29 -64 29 -35 0 -48 -5 -64 -26z"/>
<path d="M994 2165 c-15 -23 -15 -27 0 -50 28 -42 86 -28 86 21 0 40 -11 54
-41 54 -19 0 -34 -8 -45 -25z"/>
<path d="M2682 2168 c-50 -50 52 -318 112 -295 16 7 18 17 14 86 -5 83 -38
167 -80 204 -24 20 -30 21 -46 5z"/>
<path d="M2554 2086 c-15 -12 -19 -27 -20 -85 -1 -39 -4 -74 -8 -78 -3 -3 -6
2 -6 11 0 10 -15 33 -34 52 -77 77 -166 23 -166 -102 0 -119 114 -209 179
-140 27 29 44 88 36 126 -8 35 10 49 19 15 10 -38 65 -95 91 -95 46 0 58 26
53 113 -3 43 -9 82 -15 85 -6 4 -13 17 -17 29 -7 21 -69 83 -84 83 -5 0 -17
-6 -28 -14z"/>
<path d="M2120 1952 c-93 -46 -89 -219 6 -258 97 -41 181 46 159 162 -9 51
-33 84 -72 100 -42 18 -51 18 -93 -4z"/>
<path d="M682 1898 c-19 -19 -15 -48 7 -48 24 0 36 30 18 47 -10 10 -16 11
-25 1z"/>
<path d="M1813 1900 c-24 -10 -63 -77 -63 -110 0 -56 65 -120 123 -120 68 0
117 54 117 131 0 33 -6 47 -34 75 -29 29 -41 34 -77 33 -24 0 -54 -4 -66 -9z"/>
<path d="M934 1882 c-16 -11 -34 -48 -34 -71 0 -22 32 -61 50 -61 24 0 50 41
50 78 0 52 -31 78 -66 54z"/>
<path d="M1215 1871 c-44 -19 -61 -68 -40 -117 13 -33 50 -52 85 -45 32 6 60
44 60 82 0 61 -53 101 -105 80z"/>
<path d="M1489 1851 c-31 -32 -39 -84 -18 -123 17 -32 74 -51 115 -38 44 15
64 45 64 96 0 85 -100 125 -161 65z"/>
<path d="M2452 1680 c-57 -35 -78 -129 -50 -222 13 -43 61 -88 95 -88 27 0 70
34 88 70 22 42 19 133 -5 181 -17 33 -70 79 -90 79 -3 0 -20 -9 -38 -20z"/>
<path d="M2160 1621 c-49 -26 -83 -93 -76 -148 20 -152 197 -192 260 -59 35
74 5 171 -64 207 -44 24 -76 24 -120 0z"/>
<path d="M1833 1575 c-65 -28 -95 -110 -64 -179 61 -139 261 -98 261 54 0 105
-99 168 -197 125z"/>
<path d="M614 1546 c-10 -26 1 -51 22 -54 24 -3 38 20 29 49 -7 22 -43 25 -51
5z"/>
<path d="M1520 1552 c-53 -24 -80 -62 -80 -116 0 -79 58 -133 133 -123 82 11
124 106 82 186 -22 44 -93 72 -135 53z"/>
<path d="M868 1533 c-26 -29 -30 -60 -14 -92 27 -50 83 -53 104 -5 17 36 15
58 -9 88 -24 30 -59 34 -81 9z"/>
<path d="M1182 1535 c-38 -17 -67 -74 -57 -112 18 -74 111 -98 166 -44 49 50
35 122 -31 156 -35 18 -36 18 -78 0z"/>
<path d="M2175 1286 c-80 -35 -118 -148 -76 -226 72 -136 256 -85 269 75 10
120 -89 197 -193 151z"/>
<path d="M1841 1218 c-45 -24 -66 -65 -65 -124 0 -48 4 -59 32 -87 29 -28 39
-32 88 -32 51 0 58 3 90 37 29 33 34 45 34 88 0 43 -5 56 -33 86 -26 29 -42
37 -77 40 -26 3 -55 -1 -69 -8z"/>
<path d="M596 1202 c-10 -30 4 -52 31 -52 21 0 24 4 21 33 -2 24 -8 33 -25 35
-14 2 -23 -3 -27 -16z"/>
<path d="M1503 1190 c-40 -24 -53 -48 -53 -100 0 -34 6 -48 34 -76 28 -28 42
-34 76 -34 112 0 149 165 47 213 -45 22 -65 21 -104 -3z"/>
<path d="M865 1180 c-41 -46 -9 -124 49 -118 55 5 73 79 30 122 -21 22 -57 20
-79 -4z"/>
<path d="M1153 1166 c-54 -46 -26 -145 44 -159 92 -17 150 88 84 154 -38 37
-88 39 -128 5z"/>
<path d="M2192 950 c-108 -25 -164 -185 -82 -233 37 -22 62 -21 110 3 55 28
92 81 97 138 4 40 1 50 -19 68 -28 26 -63 34 -106 24z"/>
<path d="M652 873 c4 -36 33 -39 33 -3 0 16 -6 26 -18 28 -15 3 -18 -2 -15
-25z"/>
<path d="M1824 886 c-35 -15 -74 -72 -74 -106 0 -12 15 -37 34 -56 28 -28 42
-34 75 -34 110 0 179 104 118 176 -28 32 -104 43 -153 20z"/>
<path d="M898 869 c-11 -6 -18 -22 -18 -38 0 -58 79 -86 102 -36 10 22 8 30
-9 53 -22 30 -49 37 -75 21z"/>
<path d="M1503 861 c-61 -38 -70 -95 -24 -142 60 -59 165 -29 177 52 5 30 1
41 -22 68 -38 41 -87 50 -131 22z"/>
<path d="M1185 858 c-27 -15 -35 -28 -35 -61 0 -42 40 -77 90 -77 89 0 110 93
30 135 -34 18 -58 19 -85 3z"/>
<path d="M2635 778 c-28 -38 -44 -53 -40 -38 22 72 -9 71 -78 -1 -53 -57 -91
-123 -83 -145 8 -20 36 -4 88 49 23 23 45 41 49 40 5 -2 5 5 2 14 -5 12 -2 15
10 10 16 -6 65 51 96 111 20 38 5 24 -44 -40z"/>
<path d="M2372 705 c-92 -52 -161 -175 -99 -175 50 0 138 85 157 150 13 45 -7
54 -58 25z"/>
<path d="M2131 658 c-100 -28 -161 -145 -86 -164 62 -15 175 65 175 124 0 21
-7 35 -19 42 -23 12 -24 12 -70 -2z"/>
<path d="M1793 605 c-70 -30 -81 -104 -17 -125 63 -21 134 7 153 60 9 28 8 34
-14 56 -28 28 -72 31 -122 9z"/>
<path d="M977 603 c-11 -11 -8 -48 5 -61 7 -7 22 -12 35 -12 17 0 23 6 23 23
0 12 -4 27 -8 33 -9 15 -46 26 -55 17z"/>
<path d="M2495 590 c-10 -11 -13 -20 -7 -20 6 0 16 9 22 20 6 11 9 20 7 20 -2
0 -12 -9 -22 -20z"/>
<path d="M1228 589 c-38 -21 -16 -82 35 -98 45 -15 67 -6 67 30 0 26 -32 69
-51 69 -4 0 -13 2 -21 5 -7 2 -21 0 -30 -6z"/>
<path d="M1490 578 c-33 -36 -24 -79 23 -102 32 -15 42 -16 68 -6 39 17 65 65
48 88 -37 49 -103 58 -139 20z"/>
<path d="M2374 522 c-60 -39 -91 -68 -82 -77 6 -6 120 69 138 90 25 30 2 25
-56 -13z"/>
<path d="M2183 460 c-94 -54 -107 -111 -17 -70 78 34 135 100 87 100 -10 0
-41 -14 -70 -30z"/>
<path d="M1983 426 c-52 -25 -79 -56 -69 -82 17 -44 171 31 164 80 -4 30 -34
30 -95 2z"/>
<path d="M1082 388 c6 -17 36 -34 45 -24 4 4 -1 14 -11 22 -24 17 -39 18 -34
2z"/>
<path d="M1726 379 c-32 -25 -33 -44 -5 -60 43 -23 140 28 126 66 -10 23 -88
20 -121 -6z"/>
<path d="M1273 373 c-8 -20 41 -66 66 -61 26 5 25 44 -1 62 -29 21 -57 20 -65
-1z"/>
<path d="M1489 364 c-32 -39 48 -72 97 -39 20 13 22 19 14 35 -14 26 -91 28
-111 4z"/>
<path d="M2051 325 c-57 -21 -110 -55 -86 -55 40 1 165 54 165 70 0 14 -6 12
-79 -15z"/>
<path d="M1816 261 c-9 -14 19 -21 59 -14 54 9 52 23 -4 23 -27 0 -52 -4 -55
-9z"/>
<path d="M1520 250 c-8 -5 -12 -11 -10 -13 13 -12 47 -15 60 -7 13 9 13 11 0
20 -19 12 -31 12 -50 0z"/>
<path d="M1670 250 c-12 -8 -12 -10 3 -16 22 -8 87 4 87 16 0 13 -70 13 -90 0z"/>
<path d="M1360 240 c20 -13 50 -13 50 0 0 6 -15 10 -32 10 -25 0 -29 -3 -18
-10z"/>
</g>
</svg>
