<?xml version="1.0" encoding="UTF-8"?>
<svg version="1.1" xmlns="http://www.w3.org/2000/svg" width="294" height="326">
<path d="M0 0 C3.12462419 1.03929185 3.95150639 1.91392088 5.59765625 4.8359375 C14.60709663 26.60274545 19.90859666 55.21817835 11.16796875 77.9375 C10.02326922 80.9389864 9.09380111 83.9438159 8.18603516 87.0222168 C2.92411375 104.76729475 2.92411375 104.76729475 -3 110 C-4.32467746 110.6837045 -5.65863633 111.34964186 -7 112 C-7.639375 112.53625 -8.27875 113.0725 -8.9375 113.625 C-11.46559669 115.31039779 -13.02167594 115.24819367 -16 115 C-16.33 114.34 -16.66 113.68 -17 113 C-17.50789063 113.5053125 -18.01578125 114.010625 -18.5390625 114.53125 C-24.19036145 119.86506024 -24.19036145 119.86506024 -28.375 120.5625 C-31 120 -31 120 -33 118 C-33.90602029 113.87935002 -33.62175913 110.26705488 -31.76171875 106.4765625 C-29.4241021 102.89183026 -27.59225161 100.3948344 -24 98 C-25.98 96.35 -27.96 94.7 -30 93 C-30.391875 93.7425 -30.78375 94.485 -31.1875 95.25 C-33.25851548 98.39223039 -34.74222917 100.08783016 -38 102 C-42.55722243 102.82030004 -45.89846328 102.63279769 -49.9375 100.3125 C-53.0846262 96.78390396 -53.8858344 94.25582156 -54.3125 89.5625 C-53.86166662 84.42299943 -52.33553974 81.37263806 -48.75 77.6875 C-45.33358817 75.59106547 -43.00615149 75.07028336 -39 75 C-34.25384365 76.64290028 -32.18910093 78.50018142 -30 83 C-29.75765625 82.45730469 -29.5153125 81.91460937 -29.265625 81.35546875 C-25.93673111 74.24956063 -25.93673111 74.24956063 -22 72 C-23.423125 70.948125 -23.423125 70.948125 -24.875 69.875 C-28.56981227 66.76403778 -29.68392817 63.86763353 -30.21484375 59.05078125 C-30.44158197 54.28927855 -29.55662507 51.12993281 -27 47 C-26.34 46.34 -25.68 45.68 -25 45 C-25.928125 44.4225 -26.85625 43.845 -27.8125 43.25 C-31.71697689 40.49389866 -33.4982421 38.50527371 -35 34 C-35.52442906 28.61451697 -35.56606775 24.35852726 -32 20 C-29 18 -29 18 -25.4375 18.25 C-22 19 -22 19 -20 21 C-19.82984375 20.43410156 -19.6596875 19.86820313 -19.484375 19.28515625 C-19.24203125 18.55167969 -18.9996875 17.81820312 -18.75 17.0625 C-18.40195313 15.96615234 -18.40195313 15.96615234 -18.046875 14.84765625 C-17 13 -17 13 -15.0625 12.15625 C-12.04118459 11.92736247 -10.42434387 13.31642787 -8 15 C-7.67 12.36 -7.34 9.72 -7 7 C-2.25 5.875 -2.25 5.875 0 7 C0 4.69 0 2.38 0 0 Z M5 20 C5 23.63 5 27.26 5 31 C5.99 31.33 6.98 31.66 8 32 C8.08131463 30.56344146 8.13933559 29.1255517 8.1875 27.6875 C8.22230469 26.88699219 8.25710937 26.08648437 8.29296875 25.26171875 C8.17793774 22.56752485 8.17793774 22.56752485 5 20 Z M-4 26 C-4.33 29.63 -4.66 33.26 -5 37 C-2.03 37.495 -2.03 37.495 1 38 C1.66 36.02 2.32 34.04 3 32 C2.21625 31.38125 1.4325 30.7625 0.625 30.125 C-2 28 -2 28 -4 26 Z M-16 33 C-16.26554687 33.62648437 -16.53109375 34.25296875 -16.8046875 34.8984375 C-17.15789062 35.71570313 -17.51109375 36.53296875 -17.875 37.375 C-18.22304687 38.18710938 -18.57109375 38.99921875 -18.9296875 39.8359375 C-20 42 -20 42 -22 44 C-21.0925 44.4125 -20.185 44.825 -19.25 45.25 C-16.20334382 46.89050718 -14.28873194 48.44718361 -12 51 C-11.80664062 50.31292969 -11.61328125 49.62585938 -11.4140625 48.91796875 C-11.15367187 48.01691406 -10.89328125 47.11585938 -10.625 46.1875 C-10.24214844 44.84751953 -10.24214844 44.84751953 -9.8515625 43.48046875 C-9 41 -9 41 -7 38 C-7.94875 37.9175 -8.8975 37.835 -9.875 37.75 C-13 37 -13 37 -14.375 34.9375 C-14.58125 34.298125 -14.7875 33.65875 -15 33 C-15.33 33 -15.66 33 -16 33 Z M-12 61 C-12.680625 62.6396875 -12.680625 62.6396875 -13.375 64.3125 C-14.41642091 66.82137765 -15.46478044 68.69717067 -17 71 C-16.071875 71.433125 -16.071875 71.433125 -15.125 71.875 C-13 73 -13 73 -11 75 C-10.525625 74.05125 -10.05125 73.1025 -9.5625 72.125 C-8.70833333 70.41666667 -7.85416667 68.70833333 -7 67 C-7.93446535 64.96855359 -8.93224776 62.96466413 -10 61 C-10.66 61 -11.32 61 -12 61 Z M-12 88 C-12.598125 88.928125 -13.19625 89.85625 -13.8125 90.8125 C-15.45272845 93.20254718 -16.8718917 95.08470253 -19 97 C-17.515 97.99 -17.515 97.99 -16 99 C-15.01 100.485 -15.01 100.485 -14 102 C-13.59007812 101.44570312 -13.18015625 100.89140625 -12.7578125 100.3203125 C-12.21898437 99.59585938 -11.68015625 98.87140625 -11.125 98.125 C-10.32449219 97.04605469 -10.32449219 97.04605469 -9.5078125 95.9453125 C-8 94 -8 94 -6 92 C-6.61875 91.71125 -7.2375 91.4225 -7.875 91.125 C-10 90 -10 90 -12 88 Z M-2 91 C-1.01 92.485 -1.01 92.485 0 94 C0 93.01 0 92.02 0 91 C-0.66 91 -1.32 91 -2 91 Z " fill="#C33534" transform="translate(228,110)"/>
<path d="M0 0 C5.3879946 0.8170805 7.86401679 4.87171293 11 9 C13.31388699 12.88135883 14 14.44274178 14 19 C12.35 18.34 10.7 17.68 9 17 C9.33 19.97 9.66 22.94 10 26 C4.25 25.125 4.25 25.125 2 24 C2 26.31 2 28.62 2 31 C0.375 31.75 0.375 31.75 -2 32 C-8.14909611 29.19280395 -11.31824086 24.08051637 -14 18 C-14.43822609 15.42085685 -14.34169909 13.61969302 -14 11 C-11.08517222 10.19032562 -9.53886783 9.78154007 -6.6875 10.9375 C-6.130625 11.288125 -5.57375 11.63875 -5 12 C-5.33 10.02 -5.66 8.04 -6 6 C-1.25 4.875 -1.25 4.875 1 6 C0.67 4.02 0.34 2.04 0 0 Z " fill="#C33534" transform="translate(212,90)"/>
<path d="M0 0 C0.66 0.33 1.32 0.66 2 1 C0.8782037 2.7936743 -0.24754483 4.5848773 -1.375 6.375 C-2.00148437 7.37273437 -2.62796875 8.37046875 -3.2734375 9.3984375 C-5 12 -5 12 -7 14 C-7.99 14 -8.98 14 -10 14 C-10.268125 15.093125 -10.53625 16.18625 -10.8125 17.3125 C-12.34015345 22.05626598 -12.34015345 22.05626598 -15 24 C-15.59167969 24.28101563 -16.18335938 24.56203125 -16.79296875 24.8515625 C-20.28051323 26.66632016 -23.31546478 29.1000596 -26.46484375 31.44140625 C-29.08195866 33.05038753 -31.01082686 33.47714133 -34 34 C-35.4540625 35.0209375 -35.4540625 35.0209375 -36.9375 36.0625 C-40.33933832 38.21468343 -42.06111176 38.37513221 -46 38 C-45.75536626 34.69744449 -44.74684329 33.74081575 -42.375 31.3125 C-39.11994346 28.73689701 -36.14350932 28.24861056 -32 28 C-31.67 28.66 -31.34 29.32 -31 30 C-30.54109375 29.57847656 -30.0821875 29.15695313 -29.609375 28.72265625 C-28.99578125 28.17480469 -28.3821875 27.62695312 -27.75 27.0625 C-27.14671875 26.51722656 -26.5434375 25.97195312 -25.921875 25.41015625 C-23.91532695 23.93787201 -22.42997551 23.42470811 -20 23 C-20.33 21.68 -20.66 20.36 -21 19 C-21.50789063 19.5053125 -22.01578125 20.010625 -22.5390625 20.53125 C-28.23156089 25.90394511 -28.23156089 25.90394511 -32.5 26.4375 C-33.7375 26.2209375 -33.7375 26.2209375 -35 26 C-34.73907809 19.6074131 -32.64475023 16.34183173 -28 12 C-24.49016283 9.4094059 -23.46721093 9 -19 9 C-18.01 10.485 -18.01 10.485 -17 12 C-16.64808594 11.50628906 -16.29617187 11.01257813 -15.93359375 10.50390625 C-11.81062853 5.15373989 -11.81062853 5.15373989 -7.375 4.3125 C-6.26125 4.209375 -5.1475 4.10625 -4 4 C-1.579887 2.08378425 -1.579887 2.08378425 0 0 Z M-19 13 C-18 15 -18 15 -18 15 Z " fill="#C33534" transform="translate(222,222)"/>
<path d="M0 0 C3.0717718 1.71077974 5.40485654 3.80971307 7 7 C7.41251687 11.92640344 7.6526414 16.47717008 5.6875 21.0625 C3.59337695 23.46686351 1.88673386 24.85722082 -1.3046875 25.37109375 C-8.26542605 25.55093046 -8.26542605 25.55093046 -12 22.75 C-15.51941796 17.9108003 -16.62591418 15.15482281 -16 9 C-12.79525803 1.1696945 -8.19135088 -1.40941472 0 0 Z " fill="#C33534" transform="translate(190,159)"/>
<path d="M0 0 C3.08615847 3.52703825 4.00682659 6.84176815 4.1875 11.5 C3.47917731 15.30449612 1.92323127 17.84835231 -1 20.4375 C-4.68276955 21.8287685 -7.96170838 22.17822162 -11.8125 21.5 C-15.22397754 19.79426123 -17.19597495 18.46499573 -19.25 15.25 C-20.2922463 10.15457363 -19.77518839 6.0815595 -17.0625 1.625 C-11.75703814 -3.38571398 -6.40191519 -3.41435477 0 0 Z " fill="#C33534" transform="translate(167.8125,164.5)"/>
<path d="M0 0 C3.46598258 0.85393774 5.07438505 2.73374397 7.15625 5.53125 C8.39842258 9.25776773 8.6903753 12.66067074 8.15625 16.53125 C6.52923844 19.66905801 5.10803666 21.77638472 2.34375 23.96875 C-1.10809916 24.85636836 -3.41830106 24.49277953 -6.84375 23.53125 C-10.27343851 20.75831036 -11.53588927 19.21822671 -12.32421875 14.8984375 C-12.54770816 10.46489073 -12.46474972 6.59681056 -9.90625 2.84375 C-6.32973911 0.14311933 -4.38766409 -0.29251094 0 0 Z " fill="#C33534" transform="translate(183.84375,132.46875)"/>
<path d="M0 0 C2.99452434 2.24589325 3.81623122 3.44869367 5 7 C5.66611433 12.88400994 5.66611433 12.88400994 3.953125 15.75390625 C2.16567453 17.93564727 0.54217952 19.72891024 -2 21 C-9.01971231 21.57538625 -9.01971231 21.57538625 -12.875 19.3125 C-16.19958254 15.69457195 -17.02549542 13.42774356 -16.9375 8.5 C-15.82276962 4.33833993 -14.28026327 2.72021832 -11 0 C-7.51428834 -1.74285583 -3.70486842 -0.86359033 0 0 Z " fill="#C33534" transform="translate(166,192)"/>
<path d="M0 0 C4.76749746 0.92409642 7.94349068 3.25827826 11 7 C12.10688767 9.96781236 12.65777093 12.85707998 13 16 C11.68 15.67 10.36 15.34 9 15 C9.33 16.98 9.66 18.96 10 21 C9.21625 20.835 8.4325 20.67 7.625 20.5 C5.11791961 19.9376293 5.11791961 19.9376293 3 20 C3 21.65 3 23.3 3 25 C-0.83856765 25 -2.9797836 24.8398245 -5.98828125 22.36328125 C-9.55997794 18.48100224 -11.86304152 15.47833923 -12 10 C-9 9 -9 9 -6 9 C-6 8.01 -6 7.02 -6 6 C-4.35 6 -2.7 6 -1 6 C-1.33 5.01 -1.66 4.02 -2 3 C-1.34 2.67 -0.68 2.34 0 2 C0 1.34 0 0.68 0 0 Z " fill="#C33534" transform="translate(194,72)"/>
<path d="M0 0 C2.5 1.5 2.5 1.5 4 4 C4.62239078 8.82352855 4.52247556 10.97439983 2.3125 15.3125 C-0.49957113 18.58058266 -2.60194015 20.61228973 -6.95703125 21.31640625 C-10.36218987 21.51225025 -12.59649773 21.25218892 -15.5 19.4375 C-17.61204904 16.00542032 -17.53951695 13.9789375 -17 10 C-15.60665962 6.3713542 -13.71940428 3.61948702 -10.75 1.0625 C-6.80680512 -0.46100711 -4.23474129 -0.47052681 0 0 Z " fill="#C33534" transform="translate(190,213)"/>
<path d="M0 0 C3.02182284 2.05741129 4.69011377 3.49949825 5.4453125 7.15625 C5.65056702 11.26134032 5.33688603 13.46098235 3.125 17 C0.36801767 19.5948069 -0.48459743 19.96110169 -4.3125 20.25 C-8.24058469 19.98368917 -9.95647943 19.43481646 -13 17 C-15.57189679 13.57080428 -15.502142 10.16060514 -15 6 C-11.24204866 -0.47523924 -7.13674183 -1.72266182 0 0 Z " fill="#C33534" transform="translate(138,166)"/>
<path d="M0 0 C2.8100346 1.79363911 4.50940468 3.01880935 6 6 C6.65753556 10.78122289 6.71680862 13.98803489 3.875 18 C0.68296405 20.22054675 -1.12737883 20.91932039 -5 21 C-8.5074775 20.02116907 -10.67381897 18.78242096 -13 16 C-13.95204777 13.00703546 -14.19200376 10.13072796 -14 7 C-10.60859059 0.45107149 -7.27332477 -1.04501793 0 0 Z " fill="#C33534" transform="translate(162,137)"/>
<path d="M0 0 C5.44567686 1.02862785 10.11817117 2.24614784 15 5 C15 5.66 15 6.32 15 7 C14.01 7.495 14.01 7.495 13 8 C13.66 8.33 14.32 8.66 15 9 C15 9.66 15 10.32 15 11 C13.68 11.33 12.36 11.66 11 12 C11.33 12.99 11.66 13.98 12 15 C10.35 15 8.7 15 7 15 C7 16.32 7 17.64 7 19 C4.23723823 18.47731534 1.6739124 17.89130413 -1 17 C-0.67 18.32 -0.34 19.64 0 21 C-3 22 -3 22 -6.4375 20.4375 C-10.02593055 18.24330043 -12.0695976 15.78037137 -14 12 C-13.67 11.01 -13.34 10.02 -13 9 C-11.35 9.33 -9.7 9.66 -8 10 C-8 9.01 -8 8.02 -8 7 C-6.68 7 -5.36 7 -4 7 C-4 6.34 -4 5.68 -4 5 C-3.34 5 -2.68 5 -2 5 C-2 4.34 -2 3.68 -2 3 C-1.34 2.67 -0.68 2.34 0 2 C0 1.34 0 0.68 0 0 Z " fill="#C33534" transform="translate(171,60)"/>
<path d="M0 0 C4.6 2.2 4.6 2.2 6 5 C6.375 8.3125 6.375 8.3125 6 12 C3.5625 14.875 3.5625 14.875 1 17 C0.67 17.33 0.34 17.66 0 18 C-5.03841313 18.65312763 -8.82311059 18.73844042 -13.1875 16 C-15.30125469 12.50137155 -15.4862195 10.79620229 -14.72265625 6.8671875 C-12.23939349 0.45097344 -6.0045783 -0.40709005 0 0 Z " fill="#C33534" transform="translate(163,217)"/>
<path d="M0 0 C2.94855414 1.53837607 4.54706386 2.6607629 5.6328125 5.87109375 C6.27461984 9.48296695 6.23333646 11.48888203 4.6875 14.875 C1.48341361 18.90977546 1.48341361 18.90977546 -0.98828125 19.37109375 C-5.23894046 19.49254116 -7.41560539 19.38164546 -11.0625 17 C-13.22259236 13.65534086 -13.67672257 11.83102236 -13.43359375 7.93359375 C-12.75194607 4.89381354 -11.19767713 3.13303956 -9 1 C-5.89951072 -0.55024464 -3.42105782 -0.28992015 0 0 Z " fill="#C33534" transform="translate(137,193)"/>
<path d="M0 0 C4.48941575 1.52319463 5.98676729 3.1958951 8.5 7.1875 C9.47494327 10.89228441 9.72084571 13.28404028 8.8125 17 C7.22357356 19.64821074 6.48344133 20.3811645 3.5 21.1875 C-0.85947595 21.10965222 -2.79008795 20.91609395 -5.875 17.75 C-8.52520589 13.57082918 -9.31960268 10.12395753 -8.5 5.1875 C-5.89796026 1.32386524 -4.68622243 0.25104763 0 0 Z " fill="#C33534" transform="translate(174.5,107.8125)"/>
<path d="M0 0 C4.66050236 0.69907535 5.7811262 2.16102191 8.5859375 5.73828125 C10.44111992 8.64556377 10.90555687 11.18930539 10.9375 14.5625 C10.95167969 15.243125 10.96585938 15.92375 10.98046875 16.625 C10.75 18.5625 10.75 18.5625 8.75 21.5625 C5.4375 22.0625 5.4375 22.0625 1.75 21.5625 C-1.52266099 18.94437121 -3.66994387 16.42485943 -5.25 12.5625 C-5.515625 10.0546875 -5.515625 10.0546875 -5.5 7.4375 C-5.50773438 6.13425781 -5.50773438 6.13425781 -5.515625 4.8046875 C-5.06593448 1.00877045 -3.6183858 0.62625908 0 0 Z " fill="#C33534" transform="translate(190.25,104.4375)"/>
<path d="M0 0 C2.89282587 1.54284046 4.5579181 2.70087588 5.63671875 5.87109375 C6.26534609 9.4468342 6.21689236 11.50114758 4.75 14.875 C3 17 3 17 0 19 C-3.73181137 18.86429777 -6.24228107 18.46628857 -9.4375 16.5 C-11.79188287 12.7329874 -11.88317142 9.31602034 -11 5 C-7.89186342 0.52062669 -5.43349789 -1.01878085 0 0 Z " fill="#C33534" transform="translate(157,112)"/>
<path d="M0 0 C3.34265205 1.20706879 3.94704566 1.92056849 6 5 C6.48324239 8.70485832 6.26337747 10.52592056 4.4375 13.8125 C1.24450523 16.67800813 -0.74119188 17 -5 17 C-8.57387602 15.41161066 -9.81089572 14.28365642 -12 11 C-11.92390846 6.81496505 -11.63863176 4.71161825 -8.8125 1.5625 C-5.50745856 -0.27363413 -3.7271242 -0.47580309 0 0 Z " fill="#C33534" transform="translate(136,219)"/>
<path d="M0 0 C2.79669249 2.61024633 3.72283341 5.21205654 4 9 C3.20817165 12.32567907 2.38570366 13.67858028 -0.25 15.875 C-3.72682952 17.29733935 -5.43764344 17.13692231 -9 16 C-11.375 14.4375 -11.375 14.4375 -13 12 C-13.55904894 9.22186903 -13.58133371 6.77558349 -13 4 C-9.07078336 -1.10798163 -6.1704023 -1.40728474 0 0 Z " fill="#C33534" transform="translate(138,140)"/>
<path d="M0 0 C2.875 2.0625 2.875 2.0625 5 5 C5.66154724 9.11629392 5.39475662 11.22693494 3.5 14.9375 C0.45603117 17.44877428 -1.24285232 17.68356977 -5.09765625 17.41796875 C-8.13144984 16.7514063 -9.31243044 15.56510573 -11 13 C-12.15711808 9.37436334 -12.3351709 7.73737598 -10.75 4.25 C-7.58100787 0.17558154 -5.01506096 -0.70210853 0 0 Z " fill="#C33534" transform="translate(110,166)"/>
<path d="M0 0 C2.875 1.4375 2.875 1.4375 5 4 C5.58947938 7.08086395 5.67794648 9.93229219 5 13 C3.4132568 15.22639905 2.54463844 15.89936029 -0.15625 16.3984375 C-0.9296875 16.39070313 -1.703125 16.38296875 -2.5 16.375 C-3.2734375 16.38273437 -4.046875 16.39046875 -4.84375 16.3984375 C-7.51857392 15.90417656 -8.37544648 15.15278258 -10 13 C-11.02737671 9.03726124 -11.40572469 6.88873027 -9.6875 3.125 C-6.84166592 -0.45864292 -4.43603275 -0.43490517 0 0 Z " fill="#C33534" transform="translate(109,194)"/>
<path d="M0 0 C1.87109375 0.3515625 1.87109375 0.3515625 3.80859375 2.0390625 C5.50182832 5.72433773 6.2566703 8.07619393 5.05859375 12.0390625 C3.87109375 14.3515625 3.87109375 14.3515625 1.87109375 16.3515625 C-1.91227786 16.77193712 -4.24939223 16.87025026 -7.56640625 14.9140625 C-9.81085883 11.23316026 -9.98997586 7.56382194 -9.12890625 3.3515625 C-6.54495836 -0.18852513 -4.13364805 -0.16686286 0 0 Z " fill="#C33534" transform="translate(135.12890625,113.6484375)"/>
<path d="M0 0 C2 2 2 2 2.0625 4.75 C0.58883912 9.25766856 -2.20617576 11.31015233 -6 14 C-8.95664519 15.4783226 -11.74229737 15.06032783 -15 15 C-16.1875 12.875 -16.1875 12.875 -17 10 C-15.79136586 6.05179515 -14.17744051 3.81453875 -10.75 1.625 C-7.12265915 -0.22332655 -4.06952495 -0.47876764 0 0 Z " fill="#C33534" transform="translate(185,236)"/>
<path d="M0 0 C2.8125 -0.5 2.8125 -0.5 6 0 C9.13026816 2.56112849 11.74122432 5.10923881 13 9 C13.3125 12.625 13.3125 12.625 13 16 C10 18 10 18 7.6875 18.0625 C3.60126626 16.44701224 1.3043934 13.68994639 -1 10 C-2 6.25 -2 6.25 -2 3 C-1.34 2.01 -0.68 1.02 0 0 Z " fill="#C33534" transform="translate(160,88)"/>
<path d="M0 0 C2 3 2 3 1.875 6 C1 9 1 9 -0.5625 10.8125 C-4.70772707 12.8319696 -8.94174887 13.5277567 -13.4375 12.375 C-15 11 -15 11 -15.875 8.625 C-16.02216205 5.53459686 -15.93699239 4.42124049 -14 2 C-9.00656737 -0.83940287 -5.56858363 -1.5286308 0 0 Z " fill="#C33534" transform="translate(162,240)"/>
<path d="M0 0 C0.66 0.99 1.32 1.98 2 3 C2 2.34 2 1.68 2 1 C7.75 0.875 7.75 0.875 10 2 C10 4 10 4 8.6875 5.625 C7 7 7 7 4 7 C4 7.66 4 8.32 4 9 C2.68 9 1.36 9 0 9 C0 9.66 0 10.32 0 11 C-2.97 10.505 -2.97 10.505 -6 10 C-6 10.99 -6 11.98 -6 13 C-7.65 12.67 -9.3 12.34 -11 12 C-11.33 10.68 -11.66 9.36 -12 8 C-13.65 8.33 -15.3 8.66 -17 9 C-17 8.01 -17 7.02 -17 6 C-11.375 3 -11.375 3 -8 3 C-8 2.34 -8 1.68 -8 1 C-5.21136993 -0.39431504 -3.07921132 -0.25660094 0 0 Z M-1 3 C-1.99 3.66 -2.98 4.32 -4 5 C-2.68 5 -1.36 5 0 5 C-0.33 4.34 -0.66 3.68 -1 3 Z M-7 6 C-6.67 6.99 -6.34 7.98 -6 9 C-6 8.34 -6 7.68 -6 7 C-5.34 6.67 -4.68 6.34 -4 6 C-4.99 6 -5.98 6 -7 6 Z " fill="#C33534" transform="translate(152,55)"/>
<path d="M0 0 C2.5 1.625 2.5 1.625 4 4 C4.44912849 7.14389944 4.504106 9.05480125 3 11.875 C-0.22100736 13.68681664 -3.45513551 13.63479465 -7 13 C-9.5 11.375 -9.5 11.375 -11 9 C-11.44912849 5.85610056 -11.504106 3.94519875 -10 1.125 C-6.77899264 -0.68681664 -3.54486449 -0.63479465 0 0 Z " fill="#C33534" transform="translate(111,220)"/>
<path d="M0 0 C1.9375 1 1.9375 1 3 3 C3.52772961 6.56774951 3.71730752 9.76463704 1.875 12.9375 C-0.84312259 14.47776947 -2.87218992 14.93616714 -6 15 C-8.375 13.5625 -8.375 13.5625 -10 11 C-10.63076733 7.47053785 -10.66018584 4.24270277 -8.9375 1 C-5.86784865 -0.58433618 -3.38318857 -0.36248449 0 0 Z " fill="#C33534" transform="translate(112,140)"/>
<path d="M0 0 C3.375 0.125 3.375 0.125 7 1 C9.62825911 3.88260677 9.97332269 5.74211931 10.375 9.625 C10 13 10 13 8.875 15 C7 16 7 16 4 15.9375 C0.54523441 14.85788575 -0.33200295 14.16041546 -2 11 C-3.04303963 7.87088112 -3.13268801 6.41701945 -2.125 3.25 C-1 1 -1 1 0 0 Z " fill="#C33534" transform="translate(146,90)"/>
<path d="M0 0 C3.93936682 0.52524891 6.2135705 2.53032645 8.8125 5.375 C10.93719739 8.66485402 11.92551103 10.33529851 11.5 14.25 C11.273125 14.95125 11.04625 15.6525 10.8125 16.375 C7.8125 17.375 7.8125 17.375 5.4375 16.3125 C0.9441859 12.99600626 -1.79645456 10.07884084 -3.0625 4.5625 C-3.10375 3.510625 -3.145 2.45875 -3.1875 1.375 C-2.1875 0.375 -2.1875 0.375 0 0 Z " fill="#C33534" transform="translate(175.1875,84.625)"/>
<path d="M0 0 C2.4375 1.125 2.4375 1.125 4 3 C4.5 6 4.5 6 4 9 C2.4375 10.875 2.4375 10.875 0 12 C-4.38939738 12.38503486 -6.28986601 12.47342266 -10 10 C-10.37033222 6.60528797 -10.60921702 4.11092516 -8.9375 1.0625 C-5.87116726 -0.61903731 -3.42486249 -0.36051184 0 0 Z " fill="#C33534" transform="translate(136,241)"/>
<path d="M0 0 C3 0.5 3 0.5 4.9375 2.0625 C6.46168725 5.55916486 5.92828981 7.85314716 5 11.5 C3.75 13.4375 3.75 13.4375 2 14.5 C-0.5 14.9375 -0.5 14.9375 -3 14.5 C-5.50907308 12.25048621 -5.95656309 10.84749528 -6.375 7.5 C-5.79060622 2.82484976 -4.79412665 0.79902111 0 0 Z " fill="#C33534" transform="translate(112,113.5)"/>
<path d="M0 0 C2.4375 0.75 2.4375 0.75 4.4375 2.75 C4.703125 4.625 4.703125 4.625 4.6875 6.75 C4.69265625 7.45125 4.6978125 8.1525 4.703125 8.875 C4.4375 10.75 4.4375 10.75 2.4375 12.75 C-0.5 13.125 -0.5 13.125 -3.5625 12.75 C-5.5 11.1875 -5.5 11.1875 -6.5625 8.75 C-6.4375 5.125 -6.4375 5.125 -5.5625 1.75 C-2.5625 -0.25 -2.5625 -0.25 0 0 Z " fill="#C33534" transform="translate(82.5625,193.25)"/>
<path d="M0 0 C0.99 0.103125 1.98 0.20625 3 0.3125 C5.46324069 4.00736103 5.38991688 5.94543092 5 10.3125 C3.875 12.3125 3.875 12.3125 2 13.3125 C-1.0625 13.25 -1.0625 13.25 -4 12.3125 C-5.4375 10.625 -5.4375 10.625 -6 8.3125 C-5.6116064 3.45758004 -5.34486365 0.55675663 0 0 Z " fill="#C33534" transform="translate(82,165.6875)"/>
<path d="M0 0 C2.5625 0.3125 2.5625 0.3125 4.375 1.375 C6.21400018 4.37547398 5.86921285 6.87731613 5.5625 10.3125 C4.5725 11.7975 4.5725 11.7975 3.5625 13.3125 C0.5625 13.625 0.5625 13.625 -2.4375 13.3125 C-4.4375 11.3125 -4.4375 11.3125 -4.703125 9.21875 C-4.69539063 8.02765625 -4.69539063 8.02765625 -4.6875 6.8125 C-4.69265625 6.0184375 -4.6978125 5.224375 -4.703125 4.40625 C-4.29460084 1.1861184 -3.14818368 0.40361329 0 0 Z " fill="#C33534" transform="translate(132.4375,91.6875)"/>
<path d="M0 0 C0.33 0.99 0.66 1.98 1 3 C-2.08970553 6.35453743 -4.50002638 8.90244546 -9 10 C-12.3125 9.625 -12.3125 9.625 -15 9 C-14.875 6.75 -14.875 6.75 -14 4 C-9.15605344 0.2090853 -6.02088625 -1.4645399 0 0 Z " fill="#C33534" transform="translate(175,254)"/>
<path d="M0 0 C2.5 0.25 2.5 0.25 4.5 2.25 C5.05186722 8.32053942 5.05186722 8.32053942 3.3125 11.25 C1.5 12.25 1.5 12.25 -1.125 12 C-3.5 11.25 -3.5 11.25 -4.5 10.25 C-4.77314815 4.51388889 -4.77314815 4.51388889 -4.5 2.25 C-2.5 0.25 -2.5 0.25 0 0 Z " fill="#C33534" transform="translate(85.5,138.75)"/>
<path d="M0 0 C3.43183318 0.84044894 5.48528134 1.48528134 8 4 C8.125 7.125 8.125 7.125 8 10 C5.3125 10.75 5.3125 10.75 2 11 C-0.875 9.375 -0.875 9.375 -3 7 C-3.5 4.375 -3.5 4.375 -3 2 C-2.01 1.34 -1.02 0.68 0 0 Z " fill="#C33534" transform="translate(108,241)"/>
<path d="M0 0 C0.33 1.65 0.66 3.3 1 5 C-3.10457614 7.98514628 -5.97745369 8.2954439 -11 8 C-11.33 6.35 -11.66 4.7 -12 3 C-8.2391768 -0.7608232 -5.0273023 -0.25136512 0 0 Z " fill="#C33534" transform="translate(156,257)"/>
<path d="M0 0 C2.5625 0.3125 2.5625 0.3125 4.375 1.5 C5.96449375 3.9260694 5.92737512 5.46647406 5.5625 8.3125 C3.5625 10.3125 3.5625 10.3125 0.5625 10.625 C-0.4275 10.521875 -1.4175 10.41875 -2.4375 10.3125 C-4.58665785 7.08876323 -4.82036803 6.04546326 -4.4375 2.3125 C-2.4375 0.3125 -2.4375 0.3125 0 0 Z " fill="#C33534" transform="translate(83.4375,218.6875)"/>
<path d="M0 0 C2.8257202 0.08310942 4.54544382 0.59547694 6.66796875 2.484375 C11 7.30002969 11 7.30002969 11 12 C6.75254576 11.80244399 5.25575306 11.24463336 2.125 8.25 C0.00034484 5.0005274 -0.55231227 3.75572342 0 0 Z " fill="#C33534" transform="translate(149,71)"/>
<path d="M0 0 C0.598125 0.20625 1.19625 0.4125 1.8125 0.625 C2.0078125 6.6796875 2.0078125 6.6796875 1.8125 8.625 C1.1525 9.285 0.4925 9.945 -0.1875 10.625 C-4.74305556 10.06944444 -4.74305556 10.06944444 -6.1875 8.625 C-5.9375 5.1875 -5.9375 5.1875 -5.1875 1.625 C-2.1875 -0.375 -2.1875 -0.375 0 0 Z " fill="#C33534" transform="translate(118.1875,92.375)"/>
<path d="M0 0 C3 0.125 3 0.125 4 1.125 C4.125 4.625 4.125 4.625 4 8.125 C3 9.125 3 9.125 0.0625 9.375 C-0.948125 9.2925 -1.95875 9.21 -3 9.125 C-5 6.125 -5 6.125 -4.6875 3.5 C-3.68897505 0.05055016 -3.71397355 0.1547489 0 0 Z " fill="#C33534" transform="translate(92,114.875)"/>
<path d="M0 0 C0.99 0.66 1.98 1.32 3 2 C2.125 5.875 2.125 5.875 1 7 C-1.67058851 7.14115161 -4.32432238 7.04247107 -7 7 C-7.66 5.68 -8.32 4.36 -9 3 C-6.39572664 -0.47236449 -4.17901405 -0.43531396 0 0 Z " fill="#C33534" transform="translate(135,258)"/>
<path d="M0 0 C1.9375 0.25 1.9375 0.25 4 1 C6.4294516 4.6441774 6.16179575 6.71241272 6 11 C2 11 2 11 0.25 9.375 C-1.31653751 6.39857872 -1.29502561 4.31903813 -1 1 C-0.67 0.67 -0.34 0.34 0 0 Z " fill="#C33534" transform="translate(141,72)"/>
<path d="M0 0 C-1.03865218 3.34676814 -2.04612953 4.02532602 -5.1875 5.75 C-8.82422724 7.16343391 -12.10320937 7.23857902 -16 7 C-11.7678033 1.88609566 -6.50230003 0 0 0 Z " fill="#C33534" transform="translate(180,261)"/>
<path d="M0 0 C2.625 0.25 2.625 0.25 4.5 1.5 C5.625 3.25 5.625 3.25 5.3125 5.4375 C4.9721875 6.3346875 4.9721875 6.3346875 4.625 7.25 C2.315 6.92 0.005 6.59 -2.375 6.25 C-2.75718767 4.59385343 -3.08895102 2.92542976 -3.375 1.25 C-2.375 0.25 -2.375 0.25 0 0 Z " fill="#C33534" transform="translate(113.375,257.75)"/>
<path d="M0 0 C3.69230769 0.69230769 3.69230769 0.69230769 5 2 C5.04080783 3.99958364 5.04254356 6.00045254 5 8 C3.02 8.99 3.02 8.99 1 10 C-1 8 -1 8 -1.1875 4.4375 C-1 1 -1 1 0 0 Z " fill="#C33534" transform="translate(131,74)"/>
<path d="M0 0 C1.99954746 -0.04254356 4.00041636 -0.04080783 6 0 C7 1 7 1 7.0625 4.0625 C7.041875 5.031875 7.02125 6.00125 7 7 C4.625 7.125 4.625 7.125 2 7 C0 5 0 5 -0.125 2.375 C-0.08375 1.59125 -0.0425 0.8075 0 0 Z " fill="#C33534" transform="translate(86,241)"/>
<path d="M0 0 C1.65 0.33 3.3 0.66 5 1 C6.125 4.75 6.125 4.75 5 7 C3.35 7 1.7 7 0 7 C-1.125 2.25 -1.125 2.25 0 0 Z " fill="#C33534" transform="translate(57,192)"/>
<path d="M0 0 C1.32 0 2.64 0 4 0 C5.125 4.75 5.125 4.75 4 7 C2.35 7 0.7 7 -1 7 C-1.625 4.625 -1.625 4.625 -2 2 C-1.34 1.34 -0.68 0.68 0 0 Z " fill="#C33534" transform="translate(59,165)"/>
<path d="M0 0 C1.23556641 0.01740234 1.23556641 0.01740234 2.49609375 0.03515625 C3.32238281 0.04417969 4.14867187 0.05320312 5 0.0625 C5.63808594 0.07410156 6.27617187 0.08570313 6.93359375 0.09765625 C6.60359375 1.08765625 6.27359375 2.07765625 5.93359375 3.09765625 C1.47859375 3.59265625 1.47859375 3.59265625 -3.06640625 4.09765625 C-3.06640625 0.14491523 -3.06640625 0.14491523 0 0 Z " fill="#C33534" transform="translate(156.06640625,266.90234375)"/>
<path d="M0 0 C1.65 0.33 3.3 0.66 5 1 C4.67 2.65 4.34 4.3 4 6 C2.35 6.33 0.7 6.66 -1 7 C-0.67 4.69 -0.34 2.38 0 0 Z " fill="#C33433" transform="translate(99,93)"/>
<path d="M0 0 C0.99 0.33 1.98 0.66 3 1 C3 2.98 3 4.96 3 7 C1.0625 7.5625 1.0625 7.5625 -1 8 C-2 7 -2 7 -2.1875 4.5625 C-2 2 -2 2 0 0 Z " fill="#C33534" transform="translate(121,74)"/>
<path d="M0 0 C2.64 0 5.28 0 8 0 C8 0.99 8 1.98 8 3 C3.545 3.495 3.545 3.495 -1 4 C-0.67 2.68 -0.34 1.36 0 0 Z " fill="#C33534" transform="translate(142,268)"/>
<path d="M0 0 C1.65 0.33 3.3 0.66 5 1 C4.67 2.32 4.34 3.64 4 5 C2.68 5 1.36 5 0 5 C-0.33 4.01 -0.66 3.02 -1 2 C-0.67 1.34 -0.34 0.68 0 0 Z " fill="#C33534" transform="translate(63,138)"/>
<path d="M0 0 C2.97 0.495 2.97 0.495 6 1 C6 1.99 6 2.98 6 4 C3.69 4 1.38 4 -1 4 C-0.67 2.68 -0.34 1.36 0 0 Z " fill="#C33534" transform="translate(130,268)"/>
<path d="M0 0 C1.32 0.33 2.64 0.66 4 1 C4 2.65 4 4.3 4 6 C2.68 5.67 1.36 5.34 0 5 C0 3.35 0 1.7 0 0 Z " fill="#C33534" transform="translate(61,217)"/>
<path d="M0 0 C1.32 0.33 2.64 0.66 4 1 C4.33 2.32 4.66 3.64 5 5 C2.525 4.01 2.525 4.01 0 3 C0 2.01 0 1.02 0 0 Z " fill="#C33534" transform="translate(95,257)"/>
<path d="M0 0 C1.98 0 3.96 0 6 0 C6.33 0.99 6.66 1.98 7 3 C4.625 3.1875 4.625 3.1875 2 3 C1.34 2.01 0.68 1.02 0 0 Z " fill="#C33534" transform="translate(116,269)"/>
<path d="M0 0 C0.66 0.33 1.32 0.66 2 1 C1.67 1.99 1.34 2.98 1 4 C0.34 3.67 -0.32 3.34 -1 3 C-0.67 2.01 -0.34 1.02 0 0 Z " fill="#C43635" transform="translate(132,61)"/>
</svg>
